{
	"asset":{
		"generator":"Khronos glTF Blender I/O v3.6.27",
		"version":"2.0"
	},
	"extensionsUsed":[
		"KHR_materials_specular",
		"KHR_materials_ior"
	],
	"scene":0,
	"scenes":[
		{
			"name":"Scene",
			"nodes":[
				0,
				1,
				2,
				3,
				4,
				5,
				6,
				7,
				8,
				9
			]
		}
	],
	"nodes":[
		{
			"mesh":0,
			"name":"\u041e\u043a\u0440\u0443\u0436\u043d\u043e\u0441\u0442\u044c",
			"rotation":[
				0.7071068286895752,
				0,
				0,
				0.7071068286895752
			],
			"scale":[
				0.0632338896393776,
				0.0632338896393776,
				0.0632338896393776
			],
			"translation":[
				0.038799215108156204,
				-7.597100920975208e-05,
				-0.0399756021797657
			]
		},
		{
			"mesh":1,
			"name":"\u041e\u043a\u0440\u0443\u0436\u043d\u043e\u0441\u0442\u044c.001",
			"rotation":[
				0.6532814502716064,
				-0.27059805393218994,
				0.27059805393218994,
				0.6532815098762512
			],
			"scale":[
				0.0632338896393776,
				0.0632338896393776,
				0.0632338896393776
			],
			"translation":[
				0.12704318761825562,
				-7.597100920975208e-05,
				-0.15822947025299072
			]
		},
		{
			"mesh":2,
			"name":"\u041e\u043a\u0440\u0443\u0436\u043d\u043e\u0441\u0442\u044c.002",
			"rotation":[
				0.6532814502716064,
				-0.27059805393218994,
				0.27059805393218994,
				0.6532815098762512
			],
			"scale":[
				0.0632338896393776,
				0.0632338896393776,
				0.0632338896393776
			],
			"translation":[
				0.6708962321281433,
				-7.597100920975208e-05,
				-0.7020745277404785
			]
		},
		{
			"mesh":3,
			"name":"\u041e\u043a\u0440\u0443\u0436\u043d\u043e\u0441\u0442\u044c.003",
			"rotation":[
				0.27059805393218994,
				-0.6532815098762512,
				0.6532814502716064,
				0.27059805393218994
			],
			"scale":[
				0.0632338896393776,
				0.0632338896393776,
				0.0632338896393776
			],
			"translation":[
				0.8308666944503784,
				-7.597100920975208e-05,
				-0.6340774297714233
			]
		},
		{
			"mesh":4,
			"name":"\u041e\u043a\u0440\u0443\u0436\u043d\u043e\u0441\u0442\u044c.004",
			"rotation":[
				0.27059805393218994,
				-0.6532815098762512,
				0.6532814502716064,
				0.27059805393218994
			],
			"scale":[
				0.0632338896393776,
				0.0632338896393776,
				0.0632338896393776
			],
			"translation":[
				1.3742998838424683,
				-7.597100920975208e-05,
				-0.09011539071798325
			]
		},
		{
			"mesh":5,
			"name":"\u041e\u043a\u0440\u0443\u0436\u043d\u043e\u0441\u0442\u044c.005",
			"rotation":[
				0,
				0.7071068286895752,
				-0.7071068286895752,
				1.1520233300643667e-07
			],
			"scale":[
				0.0632338896393776,
				0.0632338896393776,
				0.0632338896393776
			],
			"translation":[
				1.396181583404541,
				-7.597100920975208e-05,
				0.054752789437770844
			]
		},
		{
			"mesh":6,
			"name":"\u041e\u043a\u0440\u0443\u0436\u043d\u043e\u0441\u0442\u044c.006",
			"rotation":[
				0,
				0.7071068286895752,
				-0.7071068286895752,
				1.1520233300643667e-07
			],
			"scale":[
				0.0632338896393776,
				0.0632338896393776,
				0.0632338896393776
			],
			"translation":[
				1.3960598707199097,
				-7.597100920975208e-05,
				1.6736640930175781
			]
		},
		{
			"mesh":7,
			"name":"\u041e\u043a\u0440\u0443\u0436\u043d\u043e\u0441\u0442\u044c.007",
			"rotation":[
				0.5000001192092896,
				0.49999988079071045,
				-0.49999988079071045,
				0.5000001192092896
			],
			"scale":[
				0.0632338896393776,
				0.0632338896393776,
				0.0632338896393776
			],
			"translation":[
				1.234548807144165,
				-7.597100920975208e-05,
				1.738586187362671
			]
		},
		{
			"mesh":8,
			"name":"\u041e\u043a\u0440\u0443\u0436\u043d\u043e\u0441\u0442\u044c.008",
			"rotation":[
				0.5000001192092896,
				0.49999988079071045,
				-0.49999988079071045,
				0.5000001192092896
			],
			"scale":[
				0.0632338896393776,
				0.0632338896393776,
				0.0632338896393776
			],
			"translation":[
				0.10293377935886383,
				-7.597100920975208e-05,
				1.7383865118026733
			]
		},
		{
			"mesh":9,
			"name":"\u041e\u043a\u0440\u0443\u0436\u043d\u043e\u0441\u0442\u044c.009",
			"rotation":[
				0.7071068286895752,
				0,
				0,
				0.7071068286895752
			],
			"scale":[
				0.0632338896393776,
				0.0632338896393776,
				0.0632338896393776
			],
			"translation":[
				0.03820681944489479,
				-7.597100920975208e-05,
				1.5772716999053955
			]
		}
	],
	"materials":[
		{
			"doubleSided":true,
			"extensions":{
				"KHR_materials_specular":{
					"specularColorTexture":{
						"index":0
					},
					"specularColorFactor":[
						1.4132211693100267,
						1.1152837566364082,
						1
					]
				},
				"KHR_materials_ior":{
					"ior":1.4500000476837158
				}
			},
			"name":"\u041c\u0430\u0442\u0435\u0440\u0438\u0430\u043b",
			"pbrMetallicRoughness":{
				"baseColorTexture":{
					"index":1
				},
				"metallicFactor":0.35681819915771484,
				"roughnessFactor":0.1577271968126297
			}
		},
		{
			"doubleSided":true,
			"name":"Rubber",
			"pbrMetallicRoughness":{
				"baseColorFactor":[
					0,
					0,
					0,
					1
				],
				"metallicFactor":0,
				"roughnessFactor":0.836363673210144
			}
		}
	],
	"meshes":[
		{
			"name":"\u041e\u043a\u0440\u0443\u0436\u043d\u043e\u0441\u0442\u044c.023",
			"primitives":[
				{
					"attributes":{
						"POSITION":0,
						"NORMAL":1,
						"TEXCOORD_0":2
					},
					"indices":3,
					"material":0
				},
				{
					"attributes":{
						"POSITION":4,
						"NORMAL":5,
						"TEXCOORD_0":6
					},
					"indices":7,
					"material":1
				}
			]
		},
		{
			"name":"\u041e\u043a\u0440\u0443\u0436\u043d\u043e\u0441\u0442\u044c.024",
			"primitives":[
				{
					"attributes":{
						"POSITION":8,
						"NORMAL":9,
						"TEXCOORD_0":10
					},
					"indices":11,
					"material":0
				},
				{
					"attributes":{
						"POSITION":12,
						"NORMAL":13,
						"TEXCOORD_0":14
					},
					"indices":7,
					"material":1
				}
			]
		},
		{
			"name":"\u041e\u043a\u0440\u0443\u0436\u043d\u043e\u0441\u0442\u044c.025",
			"primitives":[
				{
					"attributes":{
						"POSITION":15,
						"NORMAL":16,
						"TEXCOORD_0":17
					},
					"indices":3,
					"material":0
				},
				{
					"attributes":{
						"POSITION":18,
						"NORMAL":19,
						"TEXCOORD_0":20
					},
					"indices":7,
					"material":1
				}
			]
		},
		{
			"name":"\u041e\u043a\u0440\u0443\u0436\u043d\u043e\u0441\u0442\u044c.026",
			"primitives":[
				{
					"attributes":{
						"POSITION":21,
						"NORMAL":22,
						"TEXCOORD_0":23
					},
					"indices":24,
					"material":0
				},
				{
					"attributes":{
						"POSITION":25,
						"NORMAL":26,
						"TEXCOORD_0":27
					},
					"indices":7,
					"material":1
				}
			]
		},
		{
			"name":"\u041e\u043a\u0440\u0443\u0436\u043d\u043e\u0441\u0442\u044c.027",
			"primitives":[
				{
					"attributes":{
						"POSITION":28,
						"NORMAL":29,
						"TEXCOORD_0":30
					},
					"indices":3,
					"material":0
				},
				{
					"attributes":{
						"POSITION":31,
						"NORMAL":32,
						"TEXCOORD_0":33
					},
					"indices":7,
					"material":1
				}
			]
		},
		{
			"name":"\u041e\u043a\u0440\u0443\u0436\u043d\u043e\u0441\u0442\u044c.028",
			"primitives":[
				{
					"attributes":{
						"POSITION":34,
						"NORMAL":35,
						"TEXCOORD_0":36
					},
					"indices":11,
					"material":0
				},
				{
					"attributes":{
						"POSITION":37,
						"NORMAL":38,
						"TEXCOORD_0":39
					},
					"indices":7,
					"material":1
				}
			]
		},
		{
			"name":"\u041e\u043a\u0440\u0443\u0436\u043d\u043e\u0441\u0442\u044c.030",
			"primitives":[
				{
					"attributes":{
						"POSITION":40,
						"NORMAL":41,
						"TEXCOORD_0":42
					},
					"indices":3,
					"material":0
				},
				{
					"attributes":{
						"POSITION":43,
						"NORMAL":44,
						"TEXCOORD_0":45
					},
					"indices":7,
					"material":1
				}
			]
		},
		{
			"name":"\u041e\u043a\u0440\u0443\u0436\u043d\u043e\u0441\u0442\u044c.031",
			"primitives":[
				{
					"attributes":{
						"POSITION":46,
						"NORMAL":47,
						"TEXCOORD_0":48
					},
					"indices":24,
					"material":0
				},
				{
					"attributes":{
						"POSITION":49,
						"NORMAL":50,
						"TEXCOORD_0":51
					},
					"indices":7,
					"material":1
				}
			]
		},
		{
			"name":"\u041e\u043a\u0440\u0443\u0436\u043d\u043e\u0441\u0442\u044c.032",
			"primitives":[
				{
					"attributes":{
						"POSITION":52,
						"NORMAL":53,
						"TEXCOORD_0":54
					},
					"indices":3,
					"material":0
				},
				{
					"attributes":{
						"POSITION":55,
						"NORMAL":56,
						"TEXCOORD_0":57
					},
					"indices":7,
					"material":1
				}
			]
		},
		{
			"name":"\u041e\u043a\u0440\u0443\u0436\u043d\u043e\u0441\u0442\u044c.033",
			"primitives":[
				{
					"attributes":{
						"POSITION":58,
						"NORMAL":59,
						"TEXCOORD_0":60
					},
					"indices":24,
					"material":0
				},
				{
					"attributes":{
						"POSITION":61,
						"NORMAL":62,
						"TEXCOORD_0":63
					},
					"indices":7,
					"material":1
				}
			]
		}
	],
	"textures":[
		{
			"sampler":0,
			"source":0
		},
		{
			"sampler":0,
			"source":1
		}
	],
	"images":[
		{
			"mimeType":"image/png",
			"name":"Image",
			"uri":"Image.png"
		},
		{
			"mimeType":"image/png",
			"name":"\u0411\u0435\u0437 \u0438\u043c\u0435\u043d\u0438-1",
			"uri":"%D0%91%D0%B5%D0%B7%20%D0%B8%D0%BC%D0%B5%D0%BD%D0%B8-1.png"
		}
	],
	"accessors":[
		{
			"bufferView":0,
			"componentType":5126,
			"count":992,
			"max":[
				1.145211935043335,
				26.86752700805664,
				1.145211935043335
			],
			"min":[
				-1.145211935043335,
				-7.105428204633949e-15,
				-1.145211935043335
			],
			"type":"VEC3"
		},
		{
			"bufferView":1,
			"componentType":5126,
			"count":992,
			"type":"VEC3"
		},
		{
			"bufferView":2,
			"componentType":5126,
			"count":992,
			"type":"VEC2"
		},
		{
			"bufferView":3,
			"componentType":5123,
			"count":4416,
			"type":"SCALAR"
		},
		{
			"bufferView":4,
			"componentType":5126,
			"count":192,
			"max":[
				0.9498523473739624,
				0.4497273564338684,
				0.9498523473739624
			],
			"min":[
				-0.9498523473739624,
				0.16151155531406403,
				-0.9498523473739624
			],
			"type":"VEC3"
		},
		{
			"bufferView":5,
			"componentType":5126,
			"count":192,
			"type":"VEC3"
		},
		{
			"bufferView":6,
			"componentType":5126,
			"count":192,
			"type":"VEC2"
		},
		{
			"bufferView":7,
			"componentType":5123,
			"count":576,
			"type":"SCALAR"
		},
		{
			"bufferView":8,
			"componentType":5126,
			"count":1443,
			"max":[
				1.7885057926177979,
				3.78061580657959,
				1.145211935043335
			],
			"min":[
				-1.145211935043335,
				-7.105428204633949e-15,
				-1.145211935043335
			],
			"type":"VEC3"
		},
		{
			"bufferView":9,
			"componentType":5126,
			"count":1443,
			"type":"VEC3"
		},
		{
			"bufferView":10,
			"componentType":5126,
			"count":1443,
			"type":"VEC2"
		},
		{
			"bufferView":11,
			"componentType":5123,
			"count":7104,
			"type":"SCALAR"
		},
		{
			"bufferView":12,
			"componentType":5126,
			"count":192,
			"max":[
				0.9498523473739624,
				0.4497273564338684,
				0.9498523473739624
			],
			"min":[
				-0.9498523473739624,
				0.16151155531406403,
				-0.9498523473739624
			],
			"type":"VEC3"
		},
		{
			"bufferView":13,
			"componentType":5126,
			"count":192,
			"type":"VEC3"
		},
		{
			"bufferView":14,
			"componentType":5126,
			"count":192,
			"type":"VEC2"
		},
		{
			"bufferView":15,
			"componentType":5126,
			"count":992,
			"max":[
				1.145211935043335,
				13.423650741577148,
				1.145211935043335
			],
			"min":[
				-1.145211935043335,
				-7.105428204633949e-15,
				-1.145211935043335
			],
			"type":"VEC3"
		},
		{
			"bufferView":16,
			"componentType":5126,
			"count":992,
			"type":"VEC3"
		},
		{
			"bufferView":17,
			"componentType":5126,
			"count":992,
			"type":"VEC2"
		},
		{
			"bufferView":18,
			"componentType":5126,
			"count":192,
			"max":[
				0.9498523473739624,
				0.4497273564338684,
				0.9498523473739624
			],
			"min":[
				-0.9498523473739624,
				0.16151155531406403,
				-0.9498523473739624
			],
			"type":"VEC3"
		},
		{
			"bufferView":19,
			"componentType":5126,
			"count":192,
			"type":"VEC3"
		},
		{
			"bufferView":20,
			"componentType":5126,
			"count":192,
			"type":"VEC2"
		},
		{
			"bufferView":21,
			"componentType":5126,
			"count":1443,
			"max":[
				2.2934114933013916,
				3.467221736907959,
				1.145211935043335
			],
			"min":[
				-1.145211935043335,
				-7.105428204633949e-15,
				-1.145211935043335
			],
			"type":"VEC3"
		},
		{
			"bufferView":22,
			"componentType":5126,
			"count":1443,
			"type":"VEC3"
		},
		{
			"bufferView":23,
			"componentType":5126,
			"count":1443,
			"type":"VEC2"
		},
		{
			"bufferView":24,
			"componentType":5123,
			"count":7104,
			"type":"SCALAR"
		},
		{
			"bufferView":25,
			"componentType":5126,
			"count":192,
			"max":[
				0.9498523473739624,
				0.4497273564338684,
				0.9498523473739624
			],
			"min":[
				-0.9498523473739624,
				0.16151155531406403,
				-0.9498523473739624
			],
			"type":"VEC3"
		},
		{
			"bufferView":26,
			"componentType":5126,
			"count":192,
			"type":"VEC3"
		},
		{
			"bufferView":27,
			"componentType":5126,
			"count":192,
			"type":"VEC2"
		},
		{
			"bufferView":28,
			"componentType":5126,
			"count":992,
			"max":[
				1.145211935043335,
				13.423650741577148,
				1.145211935043335
			],
			"min":[
				-1.145211935043335,
				-7.105428204633949e-15,
				-1.145211935043335
			],
			"type":"VEC3"
		},
		{
			"bufferView":29,
			"componentType":5126,
			"count":992,
			"type":"VEC3"
		},
		{
			"bufferView":30,
			"componentType":5126,
			"count":992,
			"type":"VEC2"
		},
		{
			"bufferView":31,
			"componentType":5126,
			"count":192,
			"max":[
				0.9498523473739624,
				0.4497273564338684,
				0.9498523473739624
			],
			"min":[
				-0.9498523473739624,
				0.16151155531406403,
				-0.9498523473739624
			],
			"type":"VEC3"
		},
		{
			"bufferView":32,
			"componentType":5126,
			"count":192,
			"type":"VEC3"
		},
		{
			"bufferView":33,
			"componentType":5126,
			"count":192,
			"type":"VEC2"
		},
		{
			"bufferView":34,
			"componentType":5126,
			"count":1443,
			"max":[
				1.7885057926177979,
				3.78061580657959,
				1.145211935043335
			],
			"min":[
				-1.145211935043335,
				-7.105428204633949e-15,
				-1.145211935043335
			],
			"type":"VEC3"
		},
		{
			"bufferView":35,
			"componentType":5126,
			"count":1443,
			"type":"VEC3"
		},
		{
			"bufferView":36,
			"componentType":5126,
			"count":1443,
			"type":"VEC2"
		},
		{
			"bufferView":37,
			"componentType":5126,
			"count":192,
			"max":[
				0.9498523473739624,
				0.4497273564338684,
				0.9498523473739624
			],
			"min":[
				-0.9498523473739624,
				0.16151155531406403,
				-0.9498523473739624
			],
			"type":"VEC3"
		},
		{
			"bufferView":38,
			"componentType":5126,
			"count":192,
			"type":"VEC3"
		},
		{
			"bufferView":39,
			"componentType":5126,
			"count":192,
			"type":"VEC2"
		},
		{
			"bufferView":40,
			"componentType":5126,
			"count":992,
			"max":[
				1.145211935043335,
				26.86752700805664,
				1.145211935043335
			],
			"min":[
				-1.145211935043335,
				-7.105428204633949e-15,
				-1.145211935043335
			],
			"type":"VEC3"
		},
		{
			"bufferView":41,
			"componentType":5126,
			"count":992,
			"type":"VEC3"
		},
		{
			"bufferView":42,
			"componentType":5126,
			"count":992,
			"type":"VEC2"
		},
		{
			"bufferView":43,
			"componentType":5126,
			"count":192,
			"max":[
				0.9498523473739624,
				0.4497273564338684,
				0.9498523473739624
			],
			"min":[
				-0.9498523473739624,
				0.16151155531406403,
				-0.9498523473739624
			],
			"type":"VEC3"
		},
		{
			"bufferView":44,
			"componentType":5126,
			"count":192,
			"type":"VEC3"
		},
		{
			"bufferView":45,
			"componentType":5126,
			"count":192,
			"type":"VEC2"
		},
		{
			"bufferView":46,
			"componentType":5126,
			"count":1443,
			"max":[
				2.2934114933013916,
				3.467221736907959,
				1.145211935043335
			],
			"min":[
				-1.145211935043335,
				-7.105428204633949e-15,
				-1.145211935043335
			],
			"type":"VEC3"
		},
		{
			"bufferView":47,
			"componentType":5126,
			"count":1443,
			"type":"VEC3"
		},
		{
			"bufferView":48,
			"componentType":5126,
			"count":1443,
			"type":"VEC2"
		},
		{
			"bufferView":49,
			"componentType":5126,
			"count":192,
			"max":[
				0.9498523473739624,
				0.4497273564338684,
				0.9498523473739624
			],
			"min":[
				-0.9498523473739624,
				0.16151155531406403,
				-0.9498523473739624
			],
			"type":"VEC3"
		},
		{
			"bufferView":50,
			"componentType":5126,
			"count":192,
			"type":"VEC3"
		},
		{
			"bufferView":51,
			"componentType":5126,
			"count":192,
			"type":"VEC2"
		},
		{
			"bufferView":52,
			"componentType":5126,
			"count":992,
			"max":[
				1.145211935043335,
				18.974592208862305,
				1.145211935043335
			],
			"min":[
				-1.145211935043335,
				-7.105428204633949e-15,
				-1.145211935043335
			],
			"type":"VEC3"
		},
		{
			"bufferView":53,
			"componentType":5126,
			"count":992,
			"type":"VEC3"
		},
		{
			"bufferView":54,
			"componentType":5126,
			"count":992,
			"type":"VEC2"
		},
		{
			"bufferView":55,
			"componentType":5126,
			"count":192,
			"max":[
				0.9498523473739624,
				0.4497273564338684,
				0.9498523473739624
			],
			"min":[
				-0.9498523473739624,
				0.16151155531406403,
				-0.9498523473739624
			],
			"type":"VEC3"
		},
		{
			"bufferView":56,
			"componentType":5126,
			"count":192,
			"type":"VEC3"
		},
		{
			"bufferView":57,
			"componentType":5126,
			"count":192,
			"type":"VEC2"
		},
		{
			"bufferView":58,
			"componentType":5126,
			"count":1443,
			"max":[
				2.2934114933013916,
				3.467221736907959,
				1.145211935043335
			],
			"min":[
				-1.145211935043335,
				-7.105428204633949e-15,
				-1.145211935043335
			],
			"type":"VEC3"
		},
		{
			"bufferView":59,
			"componentType":5126,
			"count":1443,
			"type":"VEC3"
		},
		{
			"bufferView":60,
			"componentType":5126,
			"count":1443,
			"type":"VEC2"
		},
		{
			"bufferView":61,
			"componentType":5126,
			"count":192,
			"max":[
				0.9498523473739624,
				0.4497273564338684,
				0.9498523473739624
			],
			"min":[
				-0.9498523473739624,
				0.16151155531406403,
				-0.9498523473739624
			],
			"type":"VEC3"
		},
		{
			"bufferView":62,
			"componentType":5126,
			"count":192,
			"type":"VEC3"
		},
		{
			"bufferView":63,
			"componentType":5126,
			"count":192,
			"type":"VEC2"
		}
	],
	"bufferViews":[
		{
			"buffer":0,
			"byteLength":11904,
			"byteOffset":0,
			"target":34962
		},
		{
			"buffer":0,
			"byteLength":11904,
			"byteOffset":11904,
			"target":34962
		},
		{
			"buffer":0,
			"byteLength":7936,
			"byteOffset":23808,
			"target":34962
		},
		{
			"buffer":0,
			"byteLength":8832,
			"byteOffset":31744,
			"target":34963
		},
		{
			"buffer":0,
			"byteLength":2304,
			"byteOffset":40576,
			"target":34962
		},
		{
			"buffer":0,
			"byteLength":2304,
			"byteOffset":42880,
			"target":34962
		},
		{
			"buffer":0,
			"byteLength":1536,
			"byteOffset":45184,
			"target":34962
		},
		{
			"buffer":0,
			"byteLength":1152,
			"byteOffset":46720,
			"target":34963
		},
		{
			"buffer":0,
			"byteLength":17316,
			"byteOffset":47872,
			"target":34962
		},
		{
			"buffer":0,
			"byteLength":17316,
			"byteOffset":65188,
			"target":34962
		},
		{
			"buffer":0,
			"byteLength":11544,
			"byteOffset":82504,
			"target":34962
		},
		{
			"buffer":0,
			"byteLength":14208,
			"byteOffset":94048,
			"target":34963
		},
		{
			"buffer":0,
			"byteLength":2304,
			"byteOffset":108256,
			"target":34962
		},
		{
			"buffer":0,
			"byteLength":2304,
			"byteOffset":110560,
			"target":34962
		},
		{
			"buffer":0,
			"byteLength":1536,
			"byteOffset":112864,
			"target":34962
		},
		{
			"buffer":0,
			"byteLength":11904,
			"byteOffset":114400,
			"target":34962
		},
		{
			"buffer":0,
			"byteLength":11904,
			"byteOffset":126304,
			"target":34962
		},
		{
			"buffer":0,
			"byteLength":7936,
			"byteOffset":138208,
			"target":34962
		},
		{
			"buffer":0,
			"byteLength":2304,
			"byteOffset":146144,
			"target":34962
		},
		{
			"buffer":0,
			"byteLength":2304,
			"byteOffset":148448,
			"target":34962
		},
		{
			"buffer":0,
			"byteLength":1536,
			"byteOffset":150752,
			"target":34962
		},
		{
			"buffer":0,
			"byteLength":17316,
			"byteOffset":152288,
			"target":34962
		},
		{
			"buffer":0,
			"byteLength":17316,
			"byteOffset":169604,
			"target":34962
		},
		{
			"buffer":0,
			"byteLength":11544,
			"byteOffset":186920,
			"target":34962
		},
		{
			"buffer":0,
			"byteLength":14208,
			"byteOffset":198464,
			"target":34963
		},
		{
			"buffer":0,
			"byteLength":2304,
			"byteOffset":212672,
			"target":34962
		},
		{
			"buffer":0,
			"byteLength":2304,
			"byteOffset":214976,
			"target":34962
		},
		{
			"buffer":0,
			"byteLength":1536,
			"byteOffset":217280,
			"target":34962
		},
		{
			"buffer":0,
			"byteLength":11904,
			"byteOffset":218816,
			"target":34962
		},
		{
			"buffer":0,
			"byteLength":11904,
			"byteOffset":230720,
			"target":34962
		},
		{
			"buffer":0,
			"byteLength":7936,
			"byteOffset":242624,
			"target":34962
		},
		{
			"buffer":0,
			"byteLength":2304,
			"byteOffset":250560,
			"target":34962
		},
		{
			"buffer":0,
			"byteLength":2304,
			"byteOffset":252864,
			"target":34962
		},
		{
			"buffer":0,
			"byteLength":1536,
			"byteOffset":255168,
			"target":34962
		},
		{
			"buffer":0,
			"byteLength":17316,
			"byteOffset":256704,
			"target":34962
		},
		{
			"buffer":0,
			"byteLength":17316,
			"byteOffset":274020,
			"target":34962
		},
		{
			"buffer":0,
			"byteLength":11544,
			"byteOffset":291336,
			"target":34962
		},
		{
			"buffer":0,
			"byteLength":2304,
			"byteOffset":302880,
			"target":34962
		},
		{
			"buffer":0,
			"byteLength":2304,
			"byteOffset":305184,
			"target":34962
		},
		{
			"buffer":0,
			"byteLength":1536,
			"byteOffset":307488,
			"target":34962
		},
		{
			"buffer":0,
			"byteLength":11904,
			"byteOffset":309024,
			"target":34962
		},
		{
			"buffer":0,
			"byteLength":11904,
			"byteOffset":320928,
			"target":34962
		},
		{
			"buffer":0,
			"byteLength":7936,
			"byteOffset":332832,
			"target":34962
		},
		{
			"buffer":0,
			"byteLength":2304,
			"byteOffset":340768,
			"target":34962
		},
		{
			"buffer":0,
			"byteLength":2304,
			"byteOffset":343072,
			"target":34962
		},
		{
			"buffer":0,
			"byteLength":1536,
			"byteOffset":345376,
			"target":34962
		},
		{
			"buffer":0,
			"byteLength":17316,
			"byteOffset":346912,
			"target":34962
		},
		{
			"buffer":0,
			"byteLength":17316,
			"byteOffset":364228,
			"target":34962
		},
		{
			"buffer":0,
			"byteLength":11544,
			"byteOffset":381544,
			"target":34962
		},
		{
			"buffer":0,
			"byteLength":2304,
			"byteOffset":393088,
			"target":34962
		},
		{
			"buffer":0,
			"byteLength":2304,
			"byteOffset":395392,
			"target":34962
		},
		{
			"buffer":0,
			"byteLength":1536,
			"byteOffset":397696,
			"target":34962
		},
		{
			"buffer":0,
			"byteLength":11904,
			"byteOffset":399232,
			"target":34962
		},
		{
			"buffer":0,
			"byteLength":11904,
			"byteOffset":411136,
			"target":34962
		},
		{
			"buffer":0,
			"byteLength":7936,
			"byteOffset":423040,
			"target":34962
		},
		{
			"buffer":0,
			"byteLength":2304,
			"byteOffset":430976,
			"target":34962
		},
		{
			"buffer":0,
			"byteLength":2304,
			"byteOffset":433280,
			"target":34962
		},
		{
			"buffer":0,
			"byteLength":1536,
			"byteOffset":435584,
			"target":34962
		},
		{
			"buffer":0,
			"byteLength":17316,
			"byteOffset":437120,
			"target":34962
		},
		{
			"buffer":0,
			"byteLength":17316,
			"byteOffset":454436,
			"target":34962
		},
		{
			"buffer":0,
			"byteLength":11544,
			"byteOffset":471752,
			"target":34962
		},
		{
			"buffer":0,
			"byteLength":2304,
			"byteOffset":483296,
			"target":34962
		},
		{
			"buffer":0,
			"byteLength":2304,
			"byteOffset":485600,
			"target":34962
		},
		{
			"buffer":0,
			"byteLength":1536,
			"byteOffset":487904,
			"target":34962
		}
	],
	"samplers":[
		{
			"magFilter":9729,
			"minFilter":9987
		}
	],
	"buffers":[
		{
			"byteLength":489440,
			"uri":"untitled.bin"
		}
	]
}
